# xmcd
#
# Track frame offsets: 
#        150
#        20800
#        40414
#        44717
#        49020
#
# Disc length: 683 seconds
#
# Revision: 0
# Processed by: cddbd v1.5.2PL0 Copyright (c) Steve Scherf et al.
# Submitted via: ExactAudioCopy v0.99pb4
#
DISCID=4402a905
DTITLE=Lola Bleu - Love Will Find A Way EP
DYEAR=2010
DGENRE=R&B
TTITLE0=Journey
TTITLE1=I Found You
TTITLE2=What Do We Do
TTITLE3=Deep Pain
TTITLE4=Bonus Track
EXTD=
EXTT0=
EXTT1=
EXTT2=
EXTT3=
EXTT4=
PLAYORDER=
